# xmcd
#
# Track frame offsets:
#	150
#	14556
#	27565
#	41351
#	53648
#	65942
#	74752
#	86174
#	99026
#	111190
#	123219
#	134760
#	146156
#	159250
#	171051
#	183628
#	194725
#	207678
#	219014
#	230910
#	243249
#	254504
#	266474
#	279313
#	290282
#	299376
#
# Disc length: 4134 seconds
#
# Revision: 1
# Processed by: cddbd v1.5.2PL0 Copyright (c) Steve Scherf et al.
# Submitted via: audiograbber 1.83.01
#
DISCID=9e10241a
DTITLE=Bob Wills - The King Of Swing
DYEAR=2011
DGENRE=Western Swing
TTITLE0=Nancy Jane
TTITLE1=Spanish Two Step
TTITLE2=Maiden's Prayer
TTITLE3=Playboy Stomp
TTITLE4=Black Rider
TTITLE5=Ida Red
TTITLE6=San Antonio Rose
TTITLE7=Corrine, Corrina
TTITLE8=Don't Let The Deal Go Down
TTITLE9=Take Me Back To Tulsa
TTITLE10=New San Antonio Rose
TTITLE11=You're From Texas
TTITLE12=Smoke On The Water
TTITLE13=Hang Your Head In Shame
TTITLE14=Stars And Stripes On Iwo Jima
TTITLE15=Silver Dew On The Blue Grass Tonight
TTITLE16=White Cross On Okinawa
TTITLE17=New Spanish Two Step
TTITLE18=Roly Poly
TTITLE19=Stay A Little Longer
TTITLE20=Sugar Moon
TTITLE21=Ida Red (Likes The Boogie)
TTITLE22=Faded Love
TTITLE23=Silver Bells
TTITLE24=Cadillac In Model "A"
TTITLE25=So Let's Rock
EXTD=
EXTT0=
EXTT1=
EXTT2=
EXTT3=
EXTT4=
EXTT5=
EXTT6=
EXTT7=
EXTT8=
EXTT9=
EXTT10=
EXTT11=
EXTT12=
EXTT13=
EXTT14=
EXTT15=
EXTT16=
EXTT17=
EXTT18=
EXTT19=
EXTT20=
EXTT21=
EXTT22=
EXTT23=
EXTT24=
EXTT25=
PLAYORDER=
